<svg xmlns="http://www.w3.org/2000/svg" viewBox="0 0 512 512" role="img" aria-labelledby="title desc">
  <title id="title">Ding Dong Dash</title>
  <desc id="desc">A stylized apartment door and doorbell icon for Ding Dong Dash.</desc>
  <defs>
    <linearGradient id="bg" x1="64" y1="48" x2="448" y2="464" gradientUnits="userSpaceOnUse">
      <stop offset="0" stop-color="#f6cf62"/>
      <stop offset="0.54" stop-color="#e85d3f"/>
      <stop offset="1" stop-color="#6f3848"/>
    </linearGradient>
    <linearGradient id="door" x1="154" y1="96" x2="340" y2="430" gradientUnits="userSpaceOnUse">
      <stop offset="0" stop-color="#fff1c5"/>
      <stop offset="1" stop-color="#c76c37"/>
    </linearGradient>
  </defs>
  <rect width="512" height="512" rx="112" fill="url(#bg)"/>
  <path fill="#472536" d="M116 410h280v36H116z"/>
  <rect x="142" y="82" width="196" height="328" rx="20" fill="#44233a"/>
  <rect x="166" y="104" width="148" height="306" rx="14" fill="url(#door)"/>
  <rect x="190" y="134" width="100" height="94" rx="12" fill="#ffd97a" opacity=".84"/>
  <rect x="190" y="256" width="100" height="118" rx="12" fill="#9d4b35" opacity=".28"/>
  <circle cx="292" cy="246" r="12" fill="#4d2638"/>
  <rect x="348" y="188" width="58" height="112" rx="18" fill="#fff7d9"/>
  <circle cx="377" cy="222" r="18" fill="#d23f31"/>
  <path fill="none" stroke="#fff7d9" stroke-linecap="round" stroke-width="18" d="M92 192c22-32 53-51 88-58M86 260c23 7 50 8 80 1M410 128c18 20 28 45 30 74M420 324c-17 22-40 40-70 52"/>
</svg>
